<?xml version="1.0" standalone="no"?>
<!DOCTYPE svg PUBLIC "-//W3C//DTD SVG 20010904//EN"
 "http://www.w3.org/TR/2001/REC-SVG-20010904/DTD/svg10.dtd">
<svg version="1.0" xmlns="http://www.w3.org/2000/svg"
 width="500.000000pt" height="500.000000pt" viewBox="0 0 500.000000 500.000000"
 preserveAspectRatio="xMidYMid meet">
<metadata>
Created by potrace 1.14, written by Peter Selinger 2001-2017
</metadata>
<g transform="translate(0.000000,500.000000) scale(0.100000,-0.100000)"
fill="#000000" stroke="none">
<path d="M2305 4710 c-148 -16 -185 -23 -340 -61 -106 -27 -373 -119 -400
-139 -5 -4 -48 -27 -95 -51 -80 -41 -267 -160 -319 -204 -424 -353 -681 -746
-800 -1223 -48 -193 -64 -311 -66 -512 -4 -286 27 -495 112 -750 111 -337 283
-612 542 -870 208 -208 427 -358 686 -472 80 -36 308 -114 351 -121 16 -3 50
-10 77 -16 26 -6 64 -14 85 -17 20 -3 42 -7 49 -9 52 -17 400 -26 544 -13 63
6 190 25 274 42 112 23 348 104 465 159 165 80 326 180 456 285 l61 50 34 -18
c40 -21 105 -50 112 -50 3 0 18 -5 34 -12 39 -16 88 -29 158 -43 56 -11 270
-14 325 -4 103 18 139 30 137 48 -1 15 -11 16 -78 13 -43 -2 -103 2 -133 8
-31 6 -57 11 -58 10 -8 -2 -151 51 -196 74 -43 22 -127 73 -175 107 -5 4 30
53 78 110 254 302 435 684 499 1054 36 204 42 466 15 666 -24 176 -26 188 -55
299 -79 299 -228 593 -422 835 -81 102 -285 301 -377 369 -306 229 -630 373
-970 430 -49 8 -106 18 -125 21 -54 10 -407 13 -485 5z m410 -134 c50 -4 97
-9 105 -11 8 -2 31 -7 50 -10 153 -25 269 -58 427 -120 270 -107 497 -258 709
-469 197 -198 337 -404 452 -666 158 -360 207 -837 126 -1226 -9 -44 -18 -88
-20 -98 -18 -91 -122 -368 -172 -458 -10 -18 -31 -55 -47 -83 -62 -113 -197
-296 -286 -389 -28 -28 -28 -29 -55 -11 -51 33 -524 514 -664 675 -15 18 -161
177 -260 285 -30 32 -59 64 -65 71 -39 45 -175 194 -247 273 -48 52 -86 96
-85 98 2 1 28 5 60 8 240 23 456 241 517 524 23 103 21 267 -4 361 -65 244
-263 408 -540 449 -62 9 -1073 14 -1087 5 -4 -2 -6 -11 -2 -19 3 -10 20 -15
48 -15 80 0 158 -49 198 -124 l22 -41 0 -1045 c0 -1160 5 -1068 -66 -1139 -43
-44 -79 -60 -146 -67 -67 -7 -65 -7 -58 -25 4 -12 69 -14 388 -14 356 0 382 1
385 17 2 13 -3 18 -20 19 -124 4 -229 83 -243 182 -3 23 -4 519 -3 1102 l3
1060 247 1 c230 1 253 -1 318 -22 114 -36 187 -101 244 -219 85 -176 89 -449
9 -613 -15 -30 -50 -79 -78 -107 -112 -112 -237 -154 -472 -162 -133 -5 -153
-8 -153 -22 0 -9 16 -23 38 -33 43 -19 107 -79 212 -198 41 -47 84 -94 95
-106 31 -33 75 -82 275 -304 102 -113 187 -207 190 -210 3 -3 43 -48 90 -100
47 -52 95 -106 108 -120 13 -14 60 -67 105 -119 126 -145 282 -300 392 -392
55 -45 101 -85 102 -88 4 -10 -187 -149 -262 -191 -222 -126 -475 -221 -675
-254 -19 -3 -47 -8 -62 -11 -66 -12 -87 -15 -153 -21 -129 -12 -450 -4 -476
12 -4 2 -29 7 -56 10 -73 8 -275 60 -372 95 -443 162 -839 487 -1083 889 -123
203 -226 469 -262 675 -3 17 -10 53 -15 80 -23 121 -31 368 -18 525 10 109 13
131 33 226 21 102 21 103 34 144 6 19 13 46 16 60 9 46 96 254 149 356 98 189
214 344 384 515 272 272 590 454 962 549 46 12 93 24 104 25 115 20 151 25
220 31 44 3 81 7 82 8 4 4 230 -2 308 -8z"/>
</g>
</svg>
